# xmcd
#
# Track frame offsets: 
#        150
#        93311
#        109777
#        125766
#        143527
#
# Disc length: 2247 seconds
#
# Revision: 0
# Processed by: cddbd v1.5.2PL0 Copyright (c) Steve Scherf et al.
# Submitted via: ExactAudioCopyFreeDBPlugin 1.0
#
DISCID=3d08c505
DTITLE=Mike Oldfield - Crises
DYEAR=1983
DGENRE=Progressive Rock
TTITLE0=Crises
TTITLE1=Moonlight Shadow
TTITLE2=In High Places
TTITLE3=Foreign Affair
TTITLE4=Taurus 3 - Shadow on the Wall
EXTD=
EXTT0=
EXTT1=
EXTT2=
EXTT3=
EXTT4=
PLAYORDER=
